{
    "asset" : {
        "generator" : "Khronos glTF Blender I/O v1.8.19",
        "version" : "2.0"
    },
    "scene" : 0,
    "scenes" : [
        {
            "name" : "Scene",
            "nodes" : [
                0
            ]
        }
    ],
    "nodes" : [
        {
            "mesh" : 0,
            "name" : "\u529e\u516c\u697c150"
        }
    ],
    "materials" : [
        {
            "doubleSided" : true,
            "name" : "Material #2",
            "pbrMetallicRoughness" : {
                "baseColorTexture" : {
                    "index" : 0
                },
                "metallicFactor" : 0,
                "roughnessFactor" : 0.8385826349258423
            }
        },
        {
            "doubleSided" : true,
            "name" : "Material #41",
            "pbrMetallicRoughness" : {
                "baseColorFactor" : [
                    0.564706027507782,
                    0.7372549772262573,
                    0.8352940082550049,
                    1
                ],
                "metallicFactor" : 0,
                "roughnessFactor" : 0.9330708980560303
            }
        },
        {
            "doubleSided" : true,
            "name" : "00\u8e0f\u6b65.003",
            "pbrMetallicRoughness" : {
                "baseColorTexture" : {
                    "index" : 1
                },
                "metallicFactor" : 0,
                "roughnessFactor" : 0.7913385629653931
            }
        },
        {
            "doubleSided" : true,
            "name" : "00\u680f\u6746",
            "pbrMetallicRoughness" : {
                "baseColorFactor" : [
                    0.2509799897670746,
                    0.2784309983253479,
                    0.3215689957141876,
                    1
                ],
                "metallicFactor" : 0,
                "roughnessFactor" : 0.5
            }
        },
        {
            "doubleSided" : true,
            "name" : "00\u7a97\u6846.003",
            "pbrMetallicRoughness" : {
                "baseColorFactor" : [
                    0.2509799897670746,
                    0.2980389893054962,
                    0.34902000427246094,
                    1
                ],
                "metallicFactor" : 0,
                "roughnessFactor" : 0.5
            }
        },
        {
            "doubleSided" : true,
            "name" : "00\u5c42\u677f.001",
            "pbrMetallicRoughness" : {
                "baseColorTexture" : {
                    "index" : 2
                },
                "metallicFactor" : 0,
                "roughnessFactor" : 0.5
            }
        },
        {
            "doubleSided" : true,
            "name" : "Material #1",
            "pbrMetallicRoughness" : {
                "baseColorTexture" : {
                    "index" : 3
                },
                "metallicFactor" : 0,
                "roughnessFactor" : 0.5
            }
        },
        {
            "doubleSided" : true,
            "name" : "Material #1fff",
            "pbrMetallicRoughness" : {
                "baseColorTexture" : {
                    "index" : 4
                },
                "metallicFactor" : 0,
                "roughnessFactor" : 0.5
            }
        }
    ],
    "meshes" : [
        {
            "name" : "Obj3d66-1207533-11310-657",
            "primitives" : [
                {
                    "attributes" : {
                        "POSITION" : 0,
                        "NORMAL" : 1,
                        "TEXCOORD_0" : 2
                    },
                    "indices" : 3,
                    "material" : 0
                },
                {
                    "attributes" : {
                        "POSITION" : 4,
                        "NORMAL" : 5,
                        "TEXCOORD_0" : 6
                    },
                    "indices" : 7,
                    "material" : 1
                },
                {
                    "attributes" : {
                        "POSITION" : 8,
                        "NORMAL" : 9,
                        "TEXCOORD_0" : 10
                    },
                    "indices" : 11,
                    "material" : 2
                },
                {
                    "attributes" : {
                        "POSITION" : 12,
                        "NORMAL" : 13,
                        "TEXCOORD_0" : 14
                    },
                    "indices" : 15,
                    "material" : 3
                },
                {
                    "attributes" : {
                        "POSITION" : 16,
                        "NORMAL" : 17,
                        "TEXCOORD_0" : 18
                    },
                    "indices" : 19,
                    "material" : 4
                },
                {
                    "attributes" : {
                        "POSITION" : 20,
                        "NORMAL" : 21,
                        "TEXCOORD_0" : 22
                    },
                    "indices" : 23,
                    "material" : 5
                },
                {
                    "attributes" : {
                        "POSITION" : 24,
                        "NORMAL" : 25,
                        "TEXCOORD_0" : 26
                    },
                    "indices" : 27,
                    "material" : 6
                },
                {
                    "attributes" : {
                        "POSITION" : 28,
                        "NORMAL" : 29,
                        "TEXCOORD_0" : 30
                    },
                    "indices" : 31,
                    "material" : 7
                }
            ]
        }
    ],
    "textures" : [
        {
            "sampler" : 0,
            "source" : 0
        },
        {
            "sampler" : 0,
            "source" : 1
        },
        {
            "sampler" : 0,
            "source" : 2
        },
        {
            "sampler" : 0,
            "source" : 3
        },
        {
            "sampler" : 0,
            "source" : 4
        }
    ],
    "images" : [
        {
            "bufferView" : 4,
            "mimeType" : "image/jpeg",
            "name" : "3d66Model-1207533-files-11"
        },
        {
            "bufferView" : 13,
            "mimeType" : "image/jpeg",
            "name" : "3d66Model-1207533-files-7"
        },
        {
            "bufferView" : 26,
            "mimeType" : "image/jpeg",
            "name" : "3d66Model-1207533-files-1"
        },
        {
            "bufferView" : 31,
            "mimeType" : "image/jpeg",
            "name" : "3d66Model-1207533-files-27"
        },
        {
            "bufferView" : 36,
            "mimeType" : "image/jpeg",
            "name" : "3d66Model-1207533-files-24"
        }
    ],
    "accessors" : [
        {
            "bufferView" : 0,
            "componentType" : 5126,
            "count" : 1428,
            "max" : [
                19.53795623779297,
                15.206153869628906,
                13.142326354980469
            ],
            "min" : [
                -18.66213035583496,
                0.006148338317871094,
                -13.142326354980469
            ],
            "type" : "VEC3"
        },
        {
            "bufferView" : 1,
            "componentType" : 5126,
            "count" : 1428,
            "type" : "VEC3"
        },
        {
            "bufferView" : 2,
            "componentType" : 5126,
            "count" : 1428,
            "type" : "VEC2"
        },
        {
            "bufferView" : 3,
            "componentType" : 5123,
            "count" : 2604,
            "type" : "SCALAR"
        },
        {
            "bufferView" : 5,
            "componentType" : 5126,
            "count" : 588,
            "max" : [
                19.279184341430664,
                14.206183433532715,
                8.299036979675293
            ],
            "min" : [
                -18.391395568847656,
                0.5061511993408203,
                -6.242248058319092
            ],
            "type" : "VEC3"
        },
        {
            "bufferView" : 6,
            "componentType" : 5126,
            "count" : 588,
            "type" : "VEC3"
        },
        {
            "bufferView" : 7,
            "componentType" : 5126,
            "count" : 588,
            "type" : "VEC2"
        },
        {
            "bufferView" : 8,
            "componentType" : 5123,
            "count" : 900,
            "type" : "SCALAR"
        },
        {
            "bufferView" : 9,
            "componentType" : 5126,
            "count" : 1464,
            "max" : [
                9.504451751708984,
                0.706151008605957,
                11.689602851867676
            ],
            "min" : [
                -19.53795623779297,
                0,
                -4.34224796295166
            ],
            "type" : "VEC3"
        },
        {
            "bufferView" : 10,
            "componentType" : 5126,
            "count" : 1464,
            "type" : "VEC3"
        },
        {
            "bufferView" : 11,
            "componentType" : 5126,
            "count" : 1464,
            "type" : "VEC2"
        },
        {
            "bufferView" : 12,
            "componentType" : 5123,
            "count" : 3660,
            "type" : "SCALAR"
        },
        {
            "bufferView" : 14,
            "componentType" : 5126,
            "count" : 13402,
            "max" : [
                9.247754096984863,
                11.906152725219727,
                7.531455993652344
            ],
            "min" : [
                -12.471029281616211,
                0.9061527252197266,
                -2.332256555557251
            ],
            "type" : "VEC3"
        },
        {
            "bufferView" : 15,
            "componentType" : 5126,
            "count" : 13402,
            "type" : "VEC3"
        },
        {
            "bufferView" : 16,
            "componentType" : 5126,
            "count" : 13402,
            "type" : "VEC2"
        },
        {
            "bufferView" : 17,
            "componentType" : 5123,
            "count" : 36144,
            "type" : "SCALAR"
        },
        {
            "bufferView" : 18,
            "componentType" : 5126,
            "count" : 8664,
            "max" : [
                19.31920051574707,
                14.206183433532715,
                8.339040756225586
            ],
            "min" : [
                -18.431394577026367,
                0.5061492919921875,
                -6.2423810958862305
            ],
            "type" : "VEC3"
        },
        {
            "bufferView" : 19,
            "componentType" : 5126,
            "count" : 8664,
            "type" : "VEC3"
        },
        {
            "bufferView" : 20,
            "componentType" : 5126,
            "count" : 8664,
            "type" : "VEC2"
        },
        {
            "bufferView" : 21,
            "componentType" : 5123,
            "count" : 15108,
            "type" : "SCALAR"
        },
        {
            "bufferView" : 22,
            "componentType" : 5126,
            "count" : 544,
            "max" : [
                19.23787498474121,
                14.652122497558594,
                12.742332458496094
            ],
            "min" : [
                -18.26219940185547,
                0.0061511993408203125,
                -12.84231948852539
            ],
            "type" : "VEC3"
        },
        {
            "bufferView" : 23,
            "componentType" : 5126,
            "count" : 544,
            "type" : "VEC3"
        },
        {
            "bufferView" : 24,
            "componentType" : 5126,
            "count" : 544,
            "type" : "VEC2"
        },
        {
            "bufferView" : 25,
            "componentType" : 5123,
            "count" : 960,
            "type" : "SCALAR"
        },
        {
            "bufferView" : 27,
            "componentType" : 5126,
            "count" : 2292,
            "max" : [
                19.437889099121094,
                11.906153678894043,
                8.457740783691406
            ],
            "min" : [
                -18.262176513671875,
                0.006150245666503906,
                -8.642261505126953
            ],
            "type" : "VEC3"
        },
        {
            "bufferView" : 28,
            "componentType" : 5126,
            "count" : 2292,
            "type" : "VEC3"
        },
        {
            "bufferView" : 29,
            "componentType" : 5126,
            "count" : 2292,
            "type" : "VEC2"
        },
        {
            "bufferView" : 30,
            "componentType" : 5123,
            "count" : 4104,
            "type" : "SCALAR"
        },
        {
            "bufferView" : 32,
            "componentType" : 5126,
            "count" : 2520,
            "max" : [
                19.477888107299805,
                11.406152725219727,
                8.497740745544434
            ],
            "min" : [
                -15.06198787689209,
                0.6061515808105469,
                -6.042257308959961
            ],
            "type" : "VEC3"
        },
        {
            "bufferView" : 33,
            "componentType" : 5126,
            "count" : 2520,
            "type" : "VEC3"
        },
        {
            "bufferView" : 34,
            "componentType" : 5126,
            "count" : 2520,
            "type" : "VEC2"
        },
        {
            "bufferView" : 35,
            "componentType" : 5123,
            "count" : 3780,
            "type" : "SCALAR"
        }
    ],
    "bufferViews" : [
        {
            "buffer" : 0,
            "byteLength" : 17136,
            "byteOffset" : 0
        },
        {
            "buffer" : 0,
            "byteLength" : 17136,
            "byteOffset" : 17136
        },
        {
            "buffer" : 0,
            "byteLength" : 11424,
            "byteOffset" : 34272
        },
        {
            "buffer" : 0,
            "byteLength" : 5208,
            "byteOffset" : 45696
        },
        {
            "buffer" : 0,
            "byteLength" : 98512,
            "byteOffset" : 50904
        },
        {
            "buffer" : 0,
            "byteLength" : 7056,
            "byteOffset" : 149416
        },
        {
            "buffer" : 0,
            "byteLength" : 7056,
            "byteOffset" : 156472
        },
        {
            "buffer" : 0,
            "byteLength" : 4704,
            "byteOffset" : 163528
        },
        {
            "buffer" : 0,
            "byteLength" : 1800,
            "byteOffset" : 168232
        },
        {
            "buffer" : 0,
            "byteLength" : 17568,
            "byteOffset" : 170032
        },
        {
            "buffer" : 0,
            "byteLength" : 17568,
            "byteOffset" : 187600
        },
        {
            "buffer" : 0,
            "byteLength" : 11712,
            "byteOffset" : 205168
        },
        {
            "buffer" : 0,
            "byteLength" : 7320,
            "byteOffset" : 216880
        },
        {
            "buffer" : 0,
            "byteLength" : 91327,
            "byteOffset" : 224200
        },
        {
            "buffer" : 0,
            "byteLength" : 160824,
            "byteOffset" : 315528
        },
        {
            "buffer" : 0,
            "byteLength" : 160824,
            "byteOffset" : 476352
        },
        {
            "buffer" : 0,
            "byteLength" : 107216,
            "byteOffset" : 637176
        },
        {
            "buffer" : 0,
            "byteLength" : 72288,
            "byteOffset" : 744392
        },
        {
            "buffer" : 0,
            "byteLength" : 103968,
            "byteOffset" : 816680
        },
        {
            "buffer" : 0,
            "byteLength" : 103968,
            "byteOffset" : 920648
        },
        {
            "buffer" : 0,
            "byteLength" : 69312,
            "byteOffset" : 1024616
        },
        {
            "buffer" : 0,
            "byteLength" : 30216,
            "byteOffset" : 1093928
        },
        {
            "buffer" : 0,
            "byteLength" : 6528,
            "byteOffset" : 1124144
        },
        {
            "buffer" : 0,
            "byteLength" : 6528,
            "byteOffset" : 1130672
        },
        {
            "buffer" : 0,
            "byteLength" : 4352,
            "byteOffset" : 1137200
        },
        {
            "buffer" : 0,
            "byteLength" : 1920,
            "byteOffset" : 1141552
        },
        {
            "buffer" : 0,
            "byteLength" : 12584,
            "byteOffset" : 1143472
        },
        {
            "buffer" : 0,
            "byteLength" : 27504,
            "byteOffset" : 1156056
        },
        {
            "buffer" : 0,
            "byteLength" : 27504,
            "byteOffset" : 1183560
        },
        {
            "buffer" : 0,
            "byteLength" : 18336,
            "byteOffset" : 1211064
        },
        {
            "buffer" : 0,
            "byteLength" : 8208,
            "byteOffset" : 1229400
        },
        {
            "buffer" : 0,
            "byteLength" : 61894,
            "byteOffset" : 1237608
        },
        {
            "buffer" : 0,
            "byteLength" : 30240,
            "byteOffset" : 1299504
        },
        {
            "buffer" : 0,
            "byteLength" : 30240,
            "byteOffset" : 1329744
        },
        {
            "buffer" : 0,
            "byteLength" : 20160,
            "byteOffset" : 1359984
        },
        {
            "buffer" : 0,
            "byteLength" : 7560,
            "byteOffset" : 1380144
        },
        {
            "buffer" : 0,
            "byteLength" : 70499,
            "byteOffset" : 1387704
        }
    ],
    "samplers" : [
        {
            "magFilter" : 9729,
            "minFilter" : 9987
        }
    ],
    "buffers" : [
        {
            "byteLength" : 1458204,
            "uri" : "data:application/octet-stream;base64,"
        }
    ]
}
